<svg id="visual" viewBox="0 0 900 300" width="900" height="300" xmlns="http://www.w3.org/2000/svg" xmlns:xlink="http://www.w3.org/1999/xlink" version="1.1"><rect x="0" y="0" width="900" height="300" fill="#ffffff"></rect><path d="M0 162L21.5 155.7C43 149.3 86 136.7 128.8 137C171.7 137.3 214.3 150.7 257.2 147.2C300 143.7 343 123.3 385.8 126.7C428.7 130 471.3 157 514.2 158.2C557 159.3 600 134.7 642.8 129.3C685.7 124 728.3 138 771.2 135.8C814 133.7 857 115.3 878.5 106.2L900 97L900 301L878.5 301C857 301 814 301 771.2 301C728.3 301 685.7 301 642.8 301C600 301 557 301 514.2 301C471.3 301 428.7 301 385.8 301C343 301 300 301 257.2 301C214.3 301 171.7 301 128.8 301C86 301 43 301 21.5 301L0 301Z" fill="#5500ff"></path><path d="M0 216L21.5 212.8C43 209.7 86 203.3 128.8 199.3C171.7 195.3 214.3 193.7 257.2 191.8C300 190 343 188 385.8 188.8C428.7 189.7 471.3 193.3 514.2 200.2C557 207 600 217 642.8 212.7C685.7 208.3 728.3 189.7 771.2 184C814 178.3 857 185.7 878.5 189.3L900 193L900 301L878.5 301C857 301 814 301 771.2 301C728.3 301 685.7 301 642.8 301C600 301 557 301 514.2 301C471.3 301 428.7 301 385.8 301C343 301 300 301 257.2 301C214.3 301 171.7 301 128.8 301C86 301 43 301 21.5 301L0 301Z" fill="#3e31ff"></path><path d="M0 177L21.5 185.8C43 194.7 86 212.3 128.8 226.2C171.7 240 214.3 250 257.2 242.8C300 235.7 343 211.3 385.8 209.2C428.7 207 471.3 227 514.2 225.5C557 224 600 201 642.8 197.3C685.7 193.7 728.3 209.3 771.2 217.2C814 225 857 225 878.5 225L900 225L900 301L878.5 301C857 301 814 301 771.2 301C728.3 301 685.7 301 642.8 301C600 301 557 301 514.2 301C471.3 301 428.7 301 385.8 301C343 301 300 301 257.2 301C214.3 301 171.7 301 128.8 301C86 301 43 301 21.5 301L0 301Z" fill="#2545ff"></path><path d="M0 264L21.5 264.8C43 265.7 86 267.3 128.8 263.7C171.7 260 214.3 251 257.2 251.2C300 251.3 343 260.7 385.8 264.7C428.7 268.7 471.3 267.3 514.2 267.7C557 268 600 270 642.8 269.3C685.7 268.7 728.3 265.3 771.2 258.8C814 252.3 857 242.7 878.5 237.8L900 233L900 301L878.5 301C857 301 814 301 771.2 301C728.3 301 685.7 301 642.8 301C600 301 557 301 514.2 301C471.3 301 428.7 301 385.8 301C343 301 300 301 257.2 301C214.3 301 171.7 301 128.8 301C86 301 43 301 21.5 301L0 301Z" fill="#0055ff"></path></svg>