<svg id="visual" viewBox="0 0 900 300" width="900" height="300" xmlns="http://www.w3.org/2000/svg" xmlns:xlink="http://www.w3.org/1999/xlink" version="1.1"><rect x="0" y="0" width="900" height="300" fill="#ffffff"></rect><path d="M0 140L21.5 136.7C43 133.3 86 126.7 128.8 123.7C171.7 120.7 214.3 121.3 257.2 129.7C300 138 343 154 385.8 152.8C428.7 151.7 471.3 133.3 514.2 122.5C557 111.7 600 108.3 642.8 121C685.7 133.7 728.3 162.3 771.2 172.8C814 183.3 857 175.7 878.5 171.8L900 168L900 301L878.5 301C857 301 814 301 771.2 301C728.3 301 685.7 301 642.8 301C600 301 557 301 514.2 301C471.3 301 428.7 301 385.8 301C343 301 300 301 257.2 301C214.3 301 171.7 301 128.8 301C86 301 43 301 21.5 301L0 301Z" fill="#5500ff"></path><path d="M0 171L21.5 172.7C43 174.3 86 177.7 128.8 178.8C171.7 180 214.3 179 257.2 185.7C300 192.3 343 206.7 385.8 211.5C428.7 216.3 471.3 211.7 514.2 201.2C557 190.7 600 174.3 642.8 176.3C685.7 178.3 728.3 198.7 771.2 208.7C814 218.7 857 218.3 878.5 218.2L900 218L900 301L878.5 301C857 301 814 301 771.2 301C728.3 301 685.7 301 642.8 301C600 301 557 301 514.2 301C471.3 301 428.7 301 385.8 301C343 301 300 301 257.2 301C214.3 301 171.7 301 128.8 301C86 301 43 301 21.5 301L0 301Z" fill="#323cff"></path><path d="M0 251L21.5 254C43 257 86 263 128.8 262.2C171.7 261.3 214.3 253.7 257.2 249.2C300 244.7 343 243.3 385.8 247C428.7 250.7 471.3 259.3 514.2 257C557 254.7 600 241.3 642.8 237.7C685.7 234 728.3 240 771.2 239.3C814 238.7 857 231.3 878.5 227.7L900 224L900 301L878.5 301C857 301 814 301 771.2 301C728.3 301 685.7 301 642.8 301C600 301 557 301 514.2 301C471.3 301 428.7 301 385.8 301C343 301 300 301 257.2 301C214.3 301 171.7 301 128.8 301C86 301 43 301 21.5 301L0 301Z" fill="#0055ff"></path></svg>