<svg id="visual" viewBox="0 0 900 300" width="900" height="300" xmlns="http://www.w3.org/2000/svg" xmlns:xlink="http://www.w3.org/1999/xlink" version="1.1"><rect x="0" y="0" width="900" height="300" fill="#ffffff"></rect><path d="M0 199L21.5 186.3C43 173.7 86 148.3 128.8 151.8C171.7 155.3 214.3 187.7 257.2 185.7C300 183.7 343 147.3 385.8 148.3C428.7 149.3 471.3 187.7 514.2 187.8C557 188 600 150 642.8 130.8C685.7 111.7 728.3 111.3 771.2 129.2C814 147 857 183 878.5 201L900 219L900 301L878.5 301C857 301 814 301 771.2 301C728.3 301 685.7 301 642.8 301C600 301 557 301 514.2 301C471.3 301 428.7 301 385.8 301C343 301 300 301 257.2 301C214.3 301 171.7 301 128.8 301C86 301 43 301 21.5 301L0 301Z" fill="#0055ff" stroke-linecap="round" stroke-linejoin="miter"></path></svg>