<svg id="visual" viewBox="0 0 900 300" width="900" height="300" xmlns="http://www.w3.org/2000/svg" xmlns:xlink="http://www.w3.org/1999/xlink" version="1.1"><rect x="0" y="0" width="900" height="300" fill="#ffffff"></rect><path d="M0 152L21.5 147.2C43 142.3 86 132.7 128.8 125.3C171.7 118 214.3 113 257.2 116.8C300 120.7 343 133.3 385.8 152C428.7 170.7 471.3 195.3 514.2 192.2C557 189 600 158 642.8 147.7C685.7 137.3 728.3 147.7 771.2 163.5C814 179.3 857 200.7 878.5 211.3L900 222L900 301L878.5 301C857 301 814 301 771.2 301C728.3 301 685.7 301 642.8 301C600 301 557 301 514.2 301C471.3 301 428.7 301 385.8 301C343 301 300 301 257.2 301C214.3 301 171.7 301 128.8 301C86 301 43 301 21.5 301L0 301Z" fill="#0055ff"></path><path d="M0 136L21.5 139.8C43 143.7 86 151.3 128.8 156.3C171.7 161.3 214.3 163.7 257.2 170C300 176.3 343 186.7 385.8 181.2C428.7 175.7 471.3 154.3 514.2 151.5C557 148.7 600 164.3 642.8 182.8C685.7 201.3 728.3 222.7 771.2 228.2C814 233.7 857 223.3 878.5 218.2L900 213L900 301L878.5 301C857 301 814 301 771.2 301C728.3 301 685.7 301 642.8 301C600 301 557 301 514.2 301C471.3 301 428.7 301 385.8 301C343 301 300 301 257.2 301C214.3 301 171.7 301 128.8 301C86 301 43 301 21.5 301L0 301Z" fill="#2545ff"></path><path d="M0 198L21.5 194.3C43 190.7 86 183.3 128.8 191.7C171.7 200 214.3 224 257.2 235.5C300 247 343 246 385.8 245C428.7 244 471.3 243 514.2 245.7C557 248.3 600 254.7 642.8 258.3C685.7 262 728.3 263 771.2 254.8C814 246.7 857 229.3 878.5 220.7L900 212L900 301L878.5 301C857 301 814 301 771.2 301C728.3 301 685.7 301 642.8 301C600 301 557 301 514.2 301C471.3 301 428.7 301 385.8 301C343 301 300 301 257.2 301C214.3 301 171.7 301 128.8 301C86 301 43 301 21.5 301L0 301Z" fill="#3e31ff"></path><path d="M0 270L21.5 271.2C43 272.3 86 274.7 128.8 275.8C171.7 277 214.3 277 257.2 275.7C300 274.3 343 271.7 385.8 272.7C428.7 273.7 471.3 278.3 514.2 272.7C557 267 600 251 642.8 248.7C685.7 246.3 728.3 257.7 771.2 263.5C814 269.3 857 269.7 878.5 269.8L900 270L900 301L878.5 301C857 301 814 301 771.2 301C728.3 301 685.7 301 642.8 301C600 301 557 301 514.2 301C471.3 301 428.7 301 385.8 301C343 301 300 301 257.2 301C214.3 301 171.7 301 128.8 301C86 301 43 301 21.5 301L0 301Z" fill="#5500ff"></path></svg>