<svg id="visual" viewBox="0 0 900 300" width="900" height="300" xmlns="http://www.w3.org/2000/svg" xmlns:xlink="http://www.w3.org/1999/xlink" version="1.1"><path d="M0 73L13.7 71C27.3 69 54.7 65 82 58C109.3 51 136.7 41 163.8 37C191 33 218 35 245.2 36C272.3 37 299.7 37 327 43C354.3 49 381.7 61 409 68.5C436.3 76 463.7 79 491 80.5C518.3 82 545.7 82 573 73.5C600.3 65 627.7 48 654.8 46C682 44 709 57 736.2 62.5C763.3 68 790.7 66 818 61C845.3 56 872.7 48 886.3 44L900 40L900 0L886.3 0C872.7 0 845.3 0 818 0C790.7 0 763.3 0 736.2 0C709 0 682 0 654.8 0C627.7 0 600.3 0 573 0C545.7 0 518.3 0 491 0C463.7 0 436.3 0 409 0C381.7 0 354.3 0 327 0C299.7 0 272.3 0 245.2 0C218 0 191 0 163.8 0C136.7 0 109.3 0 82 0C54.7 0 27.3 0 13.7 0L0 0Z" fill="#658cff"></path><path d="M0 94L13.7 98C27.3 102 54.7 110 82 103C109.3 96 136.7 74 163.8 69.5C191 65 218 78 245.2 85.5C272.3 93 299.7 95 327 99.5C354.3 104 381.7 111 409 112C436.3 113 463.7 108 491 108.5C518.3 109 545.7 115 573 113C600.3 111 627.7 101 654.8 101C682 101 709 111 736.2 115.5C763.3 120 790.7 119 818 115C845.3 111 872.7 104 886.3 100.5L900 97L900 38L886.3 42C872.7 46 845.3 54 818 59C790.7 64 763.3 66 736.2 60.5C709 55 682 42 654.8 44C627.7 46 600.3 63 573 71.5C545.7 80 518.3 80 491 78.5C463.7 77 436.3 74 409 66.5C381.7 59 354.3 47 327 41C299.7 35 272.3 35 245.2 34C218 33 191 31 163.8 35C136.7 39 109.3 49 82 56C54.7 63 27.3 67 13.7 69L0 71Z" fill="#4071ff"></path><path d="M0 181L13.7 176C27.3 171 54.7 161 82 158.5C109.3 156 136.7 161 163.8 167.5C191 174 218 182 245.2 186C272.3 190 299.7 190 327 192.5C354.3 195 381.7 200 409 194.5C436.3 189 463.7 173 491 174C518.3 175 545.7 193 573 195C600.3 197 627.7 183 654.8 176.5C682 170 709 171 736.2 171.5C763.3 172 790.7 172 818 173.5C845.3 175 872.7 178 886.3 179.5L900 181L900 95L886.3 98.5C872.7 102 845.3 109 818 113C790.7 117 763.3 118 736.2 113.5C709 109 682 99 654.8 99C627.7 99 600.3 109 573 111C545.7 113 518.3 107 491 106.5C463.7 106 436.3 111 409 110C381.7 109 354.3 102 327 97.5C299.7 93 272.3 91 245.2 83.5C218 76 191 63 163.8 67.5C136.7 72 109.3 94 82 101C54.7 108 27.3 100 13.7 96L0 92Z" fill="#0055ff"></path><path d="M0 250L13.7 251.5C27.3 253 54.7 256 82 260C109.3 264 136.7 269 163.8 270C191 271 218 268 245.2 268.5C272.3 269 299.7 273 327 271.5C354.3 270 381.7 263 409 259.5C436.3 256 463.7 256 491 258C518.3 260 545.7 264 573 267.5C600.3 271 627.7 274 654.8 271.5C682 269 709 261 736.2 256.5C763.3 252 790.7 251 818 255C845.3 259 872.7 268 886.3 272.5L900 277L900 179L886.3 177.5C872.7 176 845.3 173 818 171.5C790.7 170 763.3 170 736.2 169.5C709 169 682 168 654.8 174.5C627.7 181 600.3 195 573 193C545.7 191 518.3 173 491 172C463.7 171 436.3 187 409 192.5C381.7 198 354.3 193 327 190.5C299.7 188 272.3 188 245.2 184C218 180 191 172 163.8 165.5C136.7 159 109.3 154 82 156.5C54.7 159 27.3 169 13.7 174L0 179Z" fill="#004add"></path><path d="M0 301L13.7 301C27.3 301 54.7 301 82 301C109.3 301 136.7 301 163.8 301C191 301 218 301 245.2 301C272.3 301 299.7 301 327 301C354.3 301 381.7 301 409 301C436.3 301 463.7 301 491 301C518.3 301 545.7 301 573 301C600.3 301 627.7 301 654.8 301C682 301 709 301 736.2 301C763.3 301 790.7 301 818 301C845.3 301 872.7 301 886.3 301L900 301L900 275L886.3 270.5C872.7 266 845.3 257 818 253C790.7 249 763.3 250 736.2 254.5C709 259 682 267 654.8 269.5C627.7 272 600.3 269 573 265.5C545.7 262 518.3 258 491 256C463.7 254 436.3 254 409 257.5C381.7 261 354.3 268 327 269.5C299.7 271 272.3 267 245.2 266.5C218 266 191 269 163.8 268C136.7 267 109.3 262 82 258C54.7 254 27.3 251 13.7 249.5L0 248Z" fill="#0040bc"></path></svg>