<svg id="visual" viewBox="0 0 900 300" width="900" height="300" xmlns="http://www.w3.org/2000/svg" xmlns:xlink="http://www.w3.org/1999/xlink" version="1.1"><rect x="0" y="0" width="900" height="300" fill="#5500ff"></rect><path d="M0 147L21.5 140.3C43 133.7 86 120.3 128.8 105.3C171.7 90.3 214.3 73.7 257.2 68.8C300 64 343 71 385.8 87.5C428.7 104 471.3 130 514.2 126C557 122 600 88 642.8 78.8C685.7 69.7 728.3 85.3 771.2 91.3C814 97.3 857 93.7 878.5 91.8L900 90L900 0L878.5 0C857 0 814 0 771.2 0C728.3 0 685.7 0 642.8 0C600 0 557 0 514.2 0C471.3 0 428.7 0 385.8 0C343 0 300 0 257.2 0C214.3 0 171.7 0 128.8 0C86 0 43 0 21.5 0L0 0Z" fill="#0055ff" stroke-linecap="round" stroke-linejoin="miter"></path></svg>