<svg id="visual" viewBox="0 0 900 300" width="900" height="300" xmlns="http://www.w3.org/2000/svg" xmlns:xlink="http://www.w3.org/1999/xlink" version="1.1"><rect x="0" y="0" width="900" height="300" fill="#ffffff"></rect><path d="M0 172L21.5 179.5C43 187 86 202 128.8 202.5C171.7 203 214.3 189 257.2 183.3C300 177.7 343 180.3 385.8 188.8C428.7 197.3 471.3 211.7 514.2 217C557 222.3 600 218.7 642.8 212.8C685.7 207 728.3 199 771.2 201C814 203 857 215 878.5 221L900 227L900 301L878.5 301C857 301 814 301 771.2 301C728.3 301 685.7 301 642.8 301C600 301 557 301 514.2 301C471.3 301 428.7 301 385.8 301C343 301 300 301 257.2 301C214.3 301 171.7 301 128.8 301C86 301 43 301 21.5 301L0 301Z" fill="#5500ff"></path><path d="M0 230L21.5 231.2C43 232.3 86 234.7 128.8 237C171.7 239.3 214.3 241.7 257.2 236C300 230.3 343 216.7 385.8 217.5C428.7 218.3 471.3 233.7 514.2 240.2C557 246.7 600 244.3 642.8 246.8C685.7 249.3 728.3 256.7 771.2 255.5C814 254.3 857 244.7 878.5 239.8L900 235L900 301L878.5 301C857 301 814 301 771.2 301C728.3 301 685.7 301 642.8 301C600 301 557 301 514.2 301C471.3 301 428.7 301 385.8 301C343 301 300 301 257.2 301C214.3 301 171.7 301 128.8 301C86 301 43 301 21.5 301L0 301Z" fill="#3e31ff"></path><path d="M0 232L21.5 232.3C43 232.7 86 233.3 128.8 239.2C171.7 245 214.3 256 257.2 262.7C300 269.3 343 271.7 385.8 267C428.7 262.3 471.3 250.7 514.2 245.2C557 239.7 600 240.3 642.8 244.7C685.7 249 728.3 257 771.2 253.7C814 250.3 857 235.7 878.5 228.3L900 221L900 301L878.5 301C857 301 814 301 771.2 301C728.3 301 685.7 301 642.8 301C600 301 557 301 514.2 301C471.3 301 428.7 301 385.8 301C343 301 300 301 257.2 301C214.3 301 171.7 301 128.8 301C86 301 43 301 21.5 301L0 301Z" fill="#2545ff"></path><path d="M0 271L21.5 271.2C43 271.3 86 271.7 128.8 270.2C171.7 268.7 214.3 265.3 257.2 263.8C300 262.3 343 262.7 385.8 264.5C428.7 266.3 471.3 269.7 514.2 272.3C557 275 600 277 642.8 277C685.7 277 728.3 275 771.2 271.5C814 268 857 263 878.5 260.5L900 258L900 301L878.5 301C857 301 814 301 771.2 301C728.3 301 685.7 301 642.8 301C600 301 557 301 514.2 301C471.3 301 428.7 301 385.8 301C343 301 300 301 257.2 301C214.3 301 171.7 301 128.8 301C86 301 43 301 21.5 301L0 301Z" fill="#0055ff"></path></svg>