<svg id="visual" viewBox="0 0 900 300" width="900" height="300" xmlns="http://www.w3.org/2000/svg" xmlns:xlink="http://www.w3.org/1999/xlink" version="1.1"><rect x="0" y="0" width="900" height="300" fill="#ffffff"></rect><path d="M0 202L25 211.3C50 220.7 100 239.3 150 242.2C200 245 250 232 300 217.2C350 202.3 400 185.7 450 189C500 192.3 550 215.7 600 228.3C650 241 700 243 750 233.7C800 224.3 850 203.7 875 193.3L900 183L900 301L875 301C850 301 800 301 750 301C700 301 650 301 600 301C550 301 500 301 450 301C400 301 350 301 300 301C250 301 200 301 150 301C100 301 50 301 25 301L0 301Z" fill="#0055ff" stroke-linecap="round" stroke-linejoin="miter"></path></svg>