<svg id="visual" viewBox="0 0 900 300" width="900" height="300" xmlns="http://www.w3.org/2000/svg" xmlns:xlink="http://www.w3.org/1999/xlink" version="1.1"><rect x="0" y="0" width="900" height="300" fill="#ffffff"></rect><path d="M0 179L11.5 174.3C23 169.7 46 160.3 69 164.3C92 168.3 115 185.7 138.2 189.3C161.3 193 184.7 183 207.8 168.2C231 153.3 254 133.7 277 133.5C300 133.3 323 152.7 346 148.5C369 144.3 392 116.7 415.2 121.8C438.3 127 461.7 165 484.8 178.7C508 192.3 531 181.7 554 180C577 178.3 600 185.7 623 172.5C646 159.3 669 125.7 692.2 121.3C715.3 117 738.7 142 761.8 141.8C785 141.7 808 116.3 831 114.5C854 112.7 877 134.3 888.5 145.2L900 156L900 0L888.5 0C877 0 854 0 831 0C808 0 785 0 761.8 0C738.7 0 715.3 0 692.2 0C669 0 646 0 623 0C600 0 577 0 554 0C531 0 508 0 484.8 0C461.7 0 438.3 0 415.2 0C392 0 369 0 346 0C323 0 300 0 277 0C254 0 231 0 207.8 0C184.7 0 161.3 0 138.2 0C115 0 92 0 69 0C46 0 23 0 11.5 0L0 0Z" fill="#5500ff" stroke-linecap="round" stroke-linejoin="miter"></path></svg>